PathFileType	4	(X/Y/Z)	C:\Github\BTS_project\Data\sports2d_results\test6 Exam_2026-03-06_143334_tvc4_Sports2D\test6 Exam_2026-03-06_143334_tvc4_Sports2D_px_person00.trc
DataRate	CameraRate	NumFrames	NumMarkers	Units	OrigDataRate	OrigDataStartFrame	OrigNumFrames
30.0	30.0	5	22	m	30.0	165	220
Frame#	Time	Hip			RHip			RKnee			RAnkle			RBigToe			RSmallToe			RHeel			LHip			LKnee			LAnkle			LBigToe			LSmallToe			LHeel			Neck			Head			Nose			RShoulder			RElbow			RWrist			LShoulder			LElbow			LWrist			
		X1	Y1	Z1	X2	Y2	Z2	X3	Y3	Z3	X4	Y4	Z4	X5	Y5	Z5	X6	Y6	Z6	X7	Y7	Z7	X8	Y8	Z8	X9	Y9	Z9	X10	Y10	Z10	X11	Y11	Z11	X12	Y12	Z12	X13	Y13	Z13	X14	Y14	Z14	X15	Y15	Z15	X16	Y16	Z16	X17	Y17	Z17	X18	Y18	Z18	X19	Y19	Z19	X20	Y20	Z20	X21	Y21	Z21	X22	Y22	Z22
165	5.525114155251141	154.08089414313056	724.216130670566	0.0	127.23236855538866	728.3451098487717	0.0	113.30322432296619	808.6015745977268	0.0	103.14916093990769	891.1880981879789	0.0	112.21969972782337	916.5987128395327	0.0	97.19084413411218	916.576220401628	0.0	99.51739995674419	902.0557400344488	0.0	179.21276802557213	730.601302109065	0.0	183.18552723008395	808.2520728407178	0.0	184.5636296193661	883.0952896410221	0.0	205.84686439963096	904.9146244903449	0.0	208.93784794803196	901.74708031482	0.0	176.04405079041607	896.0866988223173	0.0	152.797143493621	593.6678364147411	0.0	152.02839607888038	538.2458133054806	0.0	162.97494880140167	566.1335945070641	0.0	110.00131331167071	614.9680045737821	0.0	92.6178054786474	668.3222660902728	0.0	134.2207171117397	662.7934652989136	0.0	190.62772636248468	614.8356986627188	0.0	210.16488111120597	667.6396803021134	0.0	193.36500081335325	667.6536001647119	0.0
166	5.558599695585997	154.1813532425054	723.8176706685628	0.0	127.0634570440275	728.3584171798828	0.0	113.26545880920773	808.5202727623429	0.0	103.20670652376768	891.3442614788323	0.0	112.09235095719946	916.6791047905504	0.0	97.06843124704375	916.6574010546958	0.0	99.86915519537504	902.5216895636563	0.0	179.46558552476222	730.316256428715	0.0	183.30905422773805	808.1838704185992	0.0	184.5120644880449	883.2366622147634	0.0	207.1382617920912	904.8587185621712	0.0	209.51721282799497	901.7041238663624	0.0	175.99678978723895	896.0249073712408	0.0	152.84406703171177	593.2645771977458	0.0	151.6583844416778	537.9276759605011	0.0	162.76635797553027	566.2332023294937	0.0	110.11109740771566	614.8355858977575	0.0	92.5651862089909	668.329883641441	0.0	134.19164725726503	663.0200285866165	0.0	190.70088746169807	614.733778590211	0.0	211.0020289208897	667.3588105320181	0.0	194.42026234455784	666.2497277706498	0.0
167	5.592085235920852	154.22807241819137	723.271988557532	0.0	127.16515247137548	728.3549910554798	0.0	113.11868703137532	808.4757763900973	0.0	103.37059626376488	891.1868508464986	0.0	111.95902997220647	916.5650716334192	0.0	96.83760389023385	916.8088859028142	0.0	100.55574144381575	902.8335236032084	0.0	179.65047232324156	730.1732918597346	0.0	183.315500231513	807.8376501896904	0.0	184.6330840160031	883.1058063126093	0.0	207.63525804535027	904.4583480116346	0.0	209.66320482406053	901.6380722199128	0.0	176.25046160379125	896.3901103346014	0.0	152.58868636495097	592.6921100289542	0.0	151.17809778892473	537.3637072701758	0.0	162.42746782808848	566.2335852984345	0.0	110.25306928742833	614.4649731515838	0.0	92.49656673608396	668.3141055740919	0.0	134.11949043222313	662.8641279796319	0.0	190.60541589671925	614.7003234998448	0.0	211.41248316603088	667.23139096323	0.0	195.5524402080094	665.3052935281744	0.0
168	5.6255707762557075	154.18522532153565	723.1066509210698	0.0	127.53286265485079	728.6580016096852	0.0	113.05783143202964	808.5113341742006	0.0	103.42506376566512	890.7419427972735	0.0	111.83648236719466	916.4143042645027	0.0	96.51033396486336	916.9345751617786	0.0	100.94690394913914	902.8148744633879	0.0	179.6656821200527	730.2560158457048	0.0	183.2334846505274	807.6612877216152	0.0	184.69870407625766	882.8439607600702	0.0	207.32009252999694	903.9830342417976	0.0	209.31057662524046	901.497504270652	0.0	176.33617429680862	896.8674320573864	0.0	152.42178374614593	592.340498343373	0.0	150.94490884369833	537.1388425880799	0.0	162.27320908301277	566.3032316350389	0.0	110.22944481666413	614.2673658040197	0.0	92.53669737194375	668.3745165858753	0.0	134.15124132147062	662.3940970969927	0.0	190.39006163891165	614.7119518471808	0.0	211.24465274499633	667.1526536427949	0.0	196.3359751041731	664.9913141176175	0.0
169	5.659056316590563	154.15847003150364	723.396869288433	0.0	127.7846528092324	728.9517930366554	0.0	113.11394524369612	808.4600935599378	0.0	103.33292385474688	890.5316915480618	0.0	111.74378052250213	916.3484858205021	0.0	96.21973083171355	916.9763790608183	0.0	100.796710982113	902.8155253300196	0.0	179.73536697598158	730.4207551206338	0.0	183.19306956390187	807.674859361864	0.0	184.6427238254048	882.7956048329822	0.0	206.7996569498754	903.7648940520926	0.0	208.90149754057663	901.4418231863798	0.0	176.209130074256	897.0164849007617	0.0	152.5679471786765	592.2906872628	0.0	151.07976682183306	537.4412350258277	0.0	162.42830985470277	566.3717784291891	0.0	110.07653331986134	614.3361430917632	0.0	92.5841878784623	668.6690923587137	0.0	134.16990268295348	662.0737232442348	0.0	190.28911404381853	614.7286028136455	0.0	211.22198689663887	667.075932664109	0.0	196.81203379595553	664.8796943801726	0.0
